<mxfile host="Electron" agent="Mozilla/5.0 (X11; Linux x86_64) AppleWebKit/537.36 (KHTML, like Gecko) draw.io/25.0.1 Chrome/128.0.6613.186 Electron/32.2.6 Safari/537.36" version="25.0.1">
  <diagram name="Seite-1" id="cqwk15ZJymCoRZSN3T5u">
    <mxGraphModel dx="1100" dy="647" grid="1" gridSize="10" guides="1" tooltips="1" connect="1" arrows="1" fold="1" page="1" pageScale="1" pageWidth="827" pageHeight="1169" math="0" shadow="0">
      <root>
        <mxCell id="0" />
        <mxCell id="1" parent="0" />
        <mxCell id="WFcOkdqWe-Bf2Y9p2Nij-45" value="" style="group" parent="1" vertex="1" connectable="0">
          <mxGeometry x="79" y="225" width="670" height="720" as="geometry" />
        </mxCell>
        <mxCell id="WFcOkdqWe-Bf2Y9p2Nij-9" value="Personaleinsatzplanungssystem" style="shape=umlFrame;whiteSpace=wrap;html=1;pointerEvents=0;width=190;height=36;" parent="WFcOkdqWe-Bf2Y9p2Nij-45" vertex="1">
          <mxGeometry x="70" width="600" height="720" as="geometry" />
        </mxCell>
        <mxCell id="WFcOkdqWe-Bf2Y9p2Nij-22" value="" style="endArrow=none;html=1;rounded=0;exitX=0.5;exitY=0.5;exitDx=0;exitDy=0;exitPerimeter=0;entryX=0;entryY=0.5;entryDx=0;entryDy=0;" parent="WFcOkdqWe-Bf2Y9p2Nij-45" source="WFcOkdqWe-Bf2Y9p2Nij-2" target="WFcOkdqWe-Bf2Y9p2Nij-10" edge="1">
          <mxGeometry width="50" height="50" relative="1" as="geometry">
            <mxPoint x="70" y="216" as="sourcePoint" />
            <mxPoint x="120" y="166" as="targetPoint" />
          </mxGeometry>
        </mxCell>
        <mxCell id="WFcOkdqWe-Bf2Y9p2Nij-23" value="" style="endArrow=none;html=1;rounded=0;exitX=0.5;exitY=0.5;exitDx=0;exitDy=0;exitPerimeter=0;entryX=0;entryY=0.5;entryDx=0;entryDy=0;" parent="WFcOkdqWe-Bf2Y9p2Nij-45" source="WFcOkdqWe-Bf2Y9p2Nij-2" target="WFcOkdqWe-Bf2Y9p2Nij-11" edge="1">
          <mxGeometry width="50" height="50" relative="1" as="geometry">
            <mxPoint x="70" y="216" as="sourcePoint" />
            <mxPoint x="120" y="166" as="targetPoint" />
          </mxGeometry>
        </mxCell>
        <mxCell id="WFcOkdqWe-Bf2Y9p2Nij-24" value="" style="endArrow=none;html=1;rounded=0;exitX=0.5;exitY=0.5;exitDx=0;exitDy=0;exitPerimeter=0;entryX=0;entryY=0.5;entryDx=0;entryDy=0;" parent="WFcOkdqWe-Bf2Y9p2Nij-45" source="WFcOkdqWe-Bf2Y9p2Nij-2" target="WFcOkdqWe-Bf2Y9p2Nij-13" edge="1">
          <mxGeometry width="50" height="50" relative="1" as="geometry">
            <mxPoint x="90" y="276" as="sourcePoint" />
            <mxPoint x="140" y="226" as="targetPoint" />
          </mxGeometry>
        </mxCell>
        <mxCell id="WFcOkdqWe-Bf2Y9p2Nij-28" value="" style="endArrow=none;html=1;rounded=0;exitX=0.5;exitY=0.5;exitDx=0;exitDy=0;exitPerimeter=0;entryX=0;entryY=0.5;entryDx=0;entryDy=0;" parent="WFcOkdqWe-Bf2Y9p2Nij-45" source="WFcOkdqWe-Bf2Y9p2Nij-4" target="WFcOkdqWe-Bf2Y9p2Nij-14" edge="1">
          <mxGeometry width="50" height="50" relative="1" as="geometry">
            <mxPoint x="210" y="496" as="sourcePoint" />
            <mxPoint x="260" y="446" as="targetPoint" />
          </mxGeometry>
        </mxCell>
        <mxCell id="WFcOkdqWe-Bf2Y9p2Nij-30" value="" style="group" parent="WFcOkdqWe-Bf2Y9p2Nij-45" vertex="1" connectable="0">
          <mxGeometry x="100" y="325" width="340" height="70" as="geometry" />
        </mxCell>
        <mxCell id="WFcOkdqWe-Bf2Y9p2Nij-11" value="Schichtpläne erstellen" style="ellipse;whiteSpace=wrap;html=1;container=0;" parent="WFcOkdqWe-Bf2Y9p2Nij-30" vertex="1">
          <mxGeometry width="140" height="70" as="geometry" />
        </mxCell>
        <mxCell id="WFcOkdqWe-Bf2Y9p2Nij-14" value="Personalverfügbarkeit prüfen" style="ellipse;whiteSpace=wrap;html=1;container=0;" parent="WFcOkdqWe-Bf2Y9p2Nij-30" vertex="1">
          <mxGeometry x="200" width="140" height="70" as="geometry" />
        </mxCell>
        <mxCell id="WFcOkdqWe-Bf2Y9p2Nij-34" value="&amp;lt;&amp;lt;include&amp;gt;&amp;gt;" style="html=1;verticalAlign=bottom;labelBackgroundColor=none;endArrow=open;endFill=0;dashed=1;rounded=0;exitX=1;exitY=0.5;exitDx=0;exitDy=0;entryX=0;entryY=0.5;entryDx=0;entryDy=0;" parent="WFcOkdqWe-Bf2Y9p2Nij-30" source="WFcOkdqWe-Bf2Y9p2Nij-11" target="WFcOkdqWe-Bf2Y9p2Nij-14" edge="1">
          <mxGeometry width="160" relative="1" as="geometry">
            <mxPoint x="170" y="-9" as="sourcePoint" />
            <mxPoint x="330" y="-9" as="targetPoint" />
          </mxGeometry>
        </mxCell>
        <mxCell id="WFcOkdqWe-Bf2Y9p2Nij-31" value="" style="group" parent="WFcOkdqWe-Bf2Y9p2Nij-45" vertex="1" connectable="0">
          <mxGeometry x="100" y="115" width="340" height="70" as="geometry" />
        </mxCell>
        <mxCell id="WFcOkdqWe-Bf2Y9p2Nij-10" value="Personalbedarf ermitteln" style="ellipse;whiteSpace=wrap;html=1;container=0;" parent="WFcOkdqWe-Bf2Y9p2Nij-31" vertex="1">
          <mxGeometry width="140" height="70" as="geometry" />
        </mxCell>
        <mxCell id="WFcOkdqWe-Bf2Y9p2Nij-12" value="Auslastungsprognosen generieren" style="ellipse;whiteSpace=wrap;html=1;container=0;" parent="WFcOkdqWe-Bf2Y9p2Nij-31" vertex="1">
          <mxGeometry x="200" width="140" height="70" as="geometry" />
        </mxCell>
        <mxCell id="WFcOkdqWe-Bf2Y9p2Nij-33" value="&amp;lt;&amp;lt;include&amp;gt;&amp;gt;" style="html=1;verticalAlign=bottom;labelBackgroundColor=none;endArrow=open;endFill=0;dashed=1;rounded=0;exitX=1;exitY=0.5;exitDx=0;exitDy=0;entryX=0;entryY=0.5;entryDx=0;entryDy=0;" parent="WFcOkdqWe-Bf2Y9p2Nij-31" source="WFcOkdqWe-Bf2Y9p2Nij-10" target="WFcOkdqWe-Bf2Y9p2Nij-12" edge="1">
          <mxGeometry width="160" relative="1" as="geometry">
            <mxPoint x="170" y="201" as="sourcePoint" />
            <mxPoint x="330" y="201" as="targetPoint" />
          </mxGeometry>
        </mxCell>
        <mxCell id="WFcOkdqWe-Bf2Y9p2Nij-36" value="" style="endArrow=none;html=1;rounded=0;exitX=0.5;exitY=0.5;exitDx=0;exitDy=0;exitPerimeter=0;entryX=0;entryY=0.5;entryDx=0;entryDy=0;" parent="WFcOkdqWe-Bf2Y9p2Nij-45" source="WFcOkdqWe-Bf2Y9p2Nij-1" target="WFcOkdqWe-Bf2Y9p2Nij-12" edge="1">
          <mxGeometry width="50" height="50" relative="1" as="geometry">
            <mxPoint x="310" y="446" as="sourcePoint" />
            <mxPoint x="360" y="396" as="targetPoint" />
          </mxGeometry>
        </mxCell>
        <mxCell id="WFcOkdqWe-Bf2Y9p2Nij-15" value="Umdisponieren" style="ellipse;whiteSpace=wrap;html=1;container=0;" parent="WFcOkdqWe-Bf2Y9p2Nij-45" vertex="1">
          <mxGeometry x="300" y="530" width="140" height="70" as="geometry" />
        </mxCell>
        <mxCell id="WFcOkdqWe-Bf2Y9p2Nij-16" value="Meldungen versenden" style="ellipse;whiteSpace=wrap;html=1;container=0;" parent="WFcOkdqWe-Bf2Y9p2Nij-45" vertex="1">
          <mxGeometry x="500" y="530" width="140" height="70" as="geometry" />
        </mxCell>
        <mxCell id="WFcOkdqWe-Bf2Y9p2Nij-13" value="Notfallpläne aktivieren" style="ellipse;whiteSpace=wrap;html=1;container=0;" parent="WFcOkdqWe-Bf2Y9p2Nij-45" vertex="1">
          <mxGeometry x="100" y="530" width="140" height="70" as="geometry" />
        </mxCell>
        <mxCell id="WFcOkdqWe-Bf2Y9p2Nij-32" value="&amp;lt;&amp;lt;extend&amp;gt;&amp;gt;" style="html=1;verticalAlign=bottom;labelBackgroundColor=none;endArrow=open;endFill=0;dashed=1;rounded=0;exitX=0;exitY=0.5;exitDx=0;exitDy=0;entryX=1;entryY=0.5;entryDx=0;entryDy=0;" parent="WFcOkdqWe-Bf2Y9p2Nij-45" source="WFcOkdqWe-Bf2Y9p2Nij-15" target="WFcOkdqWe-Bf2Y9p2Nij-13" edge="1">
          <mxGeometry width="160" relative="1" as="geometry">
            <mxPoint x="10" y="446" as="sourcePoint" />
            <mxPoint x="270" y="116" as="targetPoint" />
          </mxGeometry>
        </mxCell>
        <mxCell id="WFcOkdqWe-Bf2Y9p2Nij-35" value="&amp;lt;&amp;lt;include&amp;gt;&amp;gt;" style="html=1;verticalAlign=bottom;labelBackgroundColor=none;endArrow=open;endFill=0;dashed=1;rounded=0;exitX=1;exitY=0.5;exitDx=0;exitDy=0;entryX=0;entryY=0.5;entryDx=0;entryDy=0;" parent="WFcOkdqWe-Bf2Y9p2Nij-45" source="WFcOkdqWe-Bf2Y9p2Nij-15" target="WFcOkdqWe-Bf2Y9p2Nij-16" edge="1">
          <mxGeometry width="160" relative="1" as="geometry">
            <mxPoint x="260" y="416" as="sourcePoint" />
            <mxPoint x="420" y="416" as="targetPoint" />
          </mxGeometry>
        </mxCell>
        <mxCell id="WFcOkdqWe-Bf2Y9p2Nij-42" value="Auslöser z.B. Grippe-Welle" style="text;html=1;align=center;verticalAlign=middle;whiteSpace=wrap;rounded=0;" parent="WFcOkdqWe-Bf2Y9p2Nij-45" vertex="1">
          <mxGeometry x="166" y="486" width="74" height="30" as="geometry" />
        </mxCell>
        <mxCell id="WFcOkdqWe-Bf2Y9p2Nij-44" value="" style="group" parent="WFcOkdqWe-Bf2Y9p2Nij-45" vertex="1" connectable="0">
          <mxGeometry y="115" width="30" height="480" as="geometry" />
        </mxCell>
        <mxCell id="WFcOkdqWe-Bf2Y9p2Nij-1" value="Verwaltung" style="shape=umlActor;verticalLabelPosition=bottom;verticalAlign=top;html=1;container=0;" parent="WFcOkdqWe-Bf2Y9p2Nij-44" vertex="1">
          <mxGeometry y="210" width="30" height="60" as="geometry" />
        </mxCell>
        <mxCell id="WFcOkdqWe-Bf2Y9p2Nij-2" value="Stationsleiter" style="shape=umlActor;verticalLabelPosition=bottom;verticalAlign=top;html=1;container=0;" parent="WFcOkdqWe-Bf2Y9p2Nij-44" vertex="1">
          <mxGeometry width="30" height="60" as="geometry" />
        </mxCell>
        <mxCell id="WFcOkdqWe-Bf2Y9p2Nij-4" value="Personal-Abteilung" style="shape=umlActor;verticalLabelPosition=bottom;verticalAlign=top;html=1;container=0;" parent="WFcOkdqWe-Bf2Y9p2Nij-44" vertex="1">
          <mxGeometry y="420" width="30" height="60" as="geometry" />
        </mxCell>
      </root>
    </mxGraphModel>
  </diagram>
</mxfile>
